<svg width="308" height="67" viewBox="0 0 308 67" fill="none" xmlns="http://www.w3.org/2000/svg">
<path d="M14.52 65.12C13.2933 65.76 11.9867 66.08 10.6 66.08C8.89334 65.8667 7.24 65.44 5.64 64.8C4.09333 64.16 2.94667 63.3867 2.2 62.48C1.77333 59.8667 1.42667 57.4667 1.16 55.28C0.893334 53.0933 0.680001 51.04 0.520001 49.12C0.360001 47.1467 0.253334 45.28 0.200001 43.52C0.146667 41.7067 0.120001 39.8933 0.120001 38.08C0.120001 35.68 0.146667 33.1467 0.200001 30.48C0.253334 27.8133 0.306668 24.9867 0.360001 22C0.466668 18.96 0.546668 15.7333 0.6 12.32C0.653334 8.85333 0.680001 5.09333 0.680001 1.04C1.37333 1.04 2.41333 1.25333 3.8 1.68C5.18667 2.05333 6.54667 2.50666 7.88 3.04C9.26667 3.57333 10.4933 4.13333 11.56 4.72C12.6267 5.25333 13.2133 5.70666 13.32 6.08C12.7867 7.57333 12.3067 9.52 11.88 11.92C11.5067 14.32 11.1867 16.9867 10.92 19.92C10.7067 22.8533 10.5467 25.9467 10.44 29.2C10.3333 32.4533 10.28 35.68 10.28 38.88C10.28 41.28 10.3067 43.44 10.36 45.36C10.4133 47.2267 10.4667 48.9333 10.52 50.48C10.6267 51.9733 10.76 53.3867 10.92 54.72C11.08 56 11.2667 57.28 11.48 58.56C12.9733 54.0267 14.6 49.4933 16.36 44.96C18.1733 40.4267 20.0133 36.08 21.88 31.92C23.8 27.7067 25.6933 23.7867 27.56 20.16C29.4267 16.5333 31.1867 13.3867 32.84 10.72C34.5467 8 36.0667 5.86666 37.4 4.32C38.7333 2.72 39.8267 1.86666 40.68 1.76C41.2667 1.86666 41.88 2.10666 42.52 2.48C43.2133 2.8 43.8533 3.2 44.44 3.68C45.0267 4.16 45.56 4.69333 46.04 5.28C46.52 5.86666 46.8933 6.45333 47.16 7.04C45.1867 7.73333 43.0533 9.36 40.76 11.92C38.52 14.48 36.2533 17.5733 33.96 21.2C31.6667 24.7733 29.4267 28.6933 27.24 32.96C25.1067 37.1733 23.16 41.3067 21.4 45.36C19.6933 49.4133 18.2267 53.2 17 56.72C15.7733 60.24 14.9467 63.04 14.52 65.12ZM36.1838 54.64C36.1838 54.16 36.2104 53.5733 36.2638 52.88C36.3704 52.1333 36.5304 51.1733 36.7438 50C36.9571 48.7733 37.2238 47.3067 37.5438 45.6C37.9171 43.8933 38.3704 41.84 38.9037 39.44C39.0104 38.9067 39.2504 38.0533 39.6238 36.88C39.9971 35.7067 40.4771 34.48 41.0638 33.2C41.7038 31.8667 42.4504 30.5867 43.3038 29.36C44.2104 28.1333 45.2771 27.2267 46.5038 26.64C47.4104 26.8533 48.6104 27.4133 50.1038 28.32C51.5971 29.1733 52.8771 30.3733 53.9438 31.92C52.7171 33.3067 51.6771 34.6933 50.8238 36.08C50.0238 37.4667 49.2771 38.9067 48.5838 40.4C47.9438 41.8933 47.3304 43.44 46.7438 45.04C46.2104 46.64 45.5971 48.32 44.9038 50.08C44.3171 51.5733 43.7838 53.12 43.3038 54.72C42.8238 56.2667 42.5571 57.6267 42.5038 58.8C42.5038 59.76 42.4771 60.4267 42.4238 60.8C42.4238 61.2267 42.2904 61.44 42.0238 61.44C41.8104 61.44 41.3838 61.3067 40.7438 61.04C40.1038 60.7733 39.4371 60.3733 38.7438 59.84C38.1038 59.2533 37.5171 58.5333 36.9838 57.68C36.4504 56.8267 36.1838 55.8133 36.1838 54.64ZM51.4638 19.92C51.4638 19.6 51.5438 19.12 51.7038 18.48C51.4371 18.2133 51.1971 17.8133 50.9838 17.28C50.8238 16.7467 50.7438 16.2667 50.7438 15.84C50.7438 15.36 50.7971 14.72 50.9038 13.92C51.0638 13.0667 51.2504 12.16 51.4638 11.2C51.6771 10.24 51.9438 9.25333 52.2638 8.24C52.5838 7.17333 52.9038 6.21333 53.2238 5.36C53.8638 5.36 54.6371 5.54666 55.5438 5.92C56.5038 6.24 57.4638 6.69333 58.4238 7.28C59.3838 7.81333 60.2638 8.42666 61.0638 9.12C61.8638 9.76 62.4771 10.3733 62.9038 10.96C62.3171 11.5467 61.5438 12.3733 60.5838 13.44C59.6238 14.4533 58.6904 15.5467 57.7838 16.72C56.8771 17.84 56.0504 18.9067 55.3038 19.92C54.5571 20.9333 54.0771 21.6533 53.8638 22.08C53.2238 21.9733 52.6638 21.7067 52.1838 21.28C51.7038 20.8 51.4638 20.3467 51.4638 19.92ZM59.41 31.68C59.41 30.72 59.4633 29.8133 59.57 28.96C59.73 28.1067 60.0233 27.3867 60.45 26.8C60.8767 26.16 61.4633 25.68 62.21 25.36C62.9567 24.9867 63.9433 24.8 65.17 24.8C65.9167 24.8 66.7433 24.88 67.65 25.04C68.61 25.2 69.3033 25.4933 69.73 25.92C69.5167 26.8267 69.33 27.6267 69.17 28.32C69.0633 29.0133 68.9567 29.7867 68.85 30.64C68.7967 31.44 68.7433 32.4267 68.69 33.6C68.6367 34.72 68.5833 36.1867 68.53 38C68.4233 41.6267 68.2367 44.88 67.97 47.76C67.7567 50.5867 67.2233 53.4133 66.37 56.24C66.37 56.4533 66.45 56.56 66.61 56.56C67.41 55.9733 68.3167 55.12 69.33 54C70.3433 52.88 71.41 51.6267 72.53 50.24C73.65 48.8 74.77 47.28 75.89 45.68C77.01 44.08 78.05 42.5067 79.01 40.96C80.29 38.72 81.7033 35.92 83.25 32.56C84.7967 29.2 86.0767 25.6 87.09 21.76C87.41 21.76 87.81 21.84 88.29 22C88.8233 22.1067 89.33 22.2667 89.81 22.48C90.3433 22.64 90.7967 22.8267 91.17 23.04C91.5967 23.2533 91.89 23.44 92.05 23.6C91.9433 25.8933 91.3833 28.24 90.37 30.64C89.41 33.04 88.2367 35.36 86.85 37.6C85.4633 39.84 83.9967 41.9467 82.45 43.92C80.9033 45.8933 79.49 47.6 78.21 49.04C75.65 52.0267 73.0633 54.6933 70.45 57.04C67.89 59.3867 64.8233 61.6533 61.25 63.84C59.8633 63.3067 58.77 62.5867 57.97 61.68C57.17 60.8267 56.77 59.92 56.77 58.96C56.77 58.32 56.9033 57.6 57.17 56.8C57.49 55.9467 57.8367 54.88 58.21 53.6C58.5833 52.2667 58.9033 50.6133 59.17 48.64C59.49 46.6667 59.65 44.16 59.65 41.12C59.65 39.36 59.5967 37.6 59.49 35.84C59.4367 34.0267 59.41 32.64 59.41 31.68ZM118.469 27.68C119.003 27.68 119.616 27.7867 120.309 28C121.056 28.16 121.723 28.4 122.309 28.72C122.896 28.9867 123.376 29.28 123.749 29.6C124.176 29.92 124.389 30.2133 124.389 30.48C123.323 32.72 122.336 34.9867 121.429 37.28C120.523 39.52 119.749 41.68 119.109 43.76C118.469 45.84 117.963 47.7867 117.589 49.6C117.269 51.4133 117.109 52.9867 117.109 54.32C117.109 55.8133 117.269 57.0667 117.589 58.08C117.909 59.04 118.443 59.7333 119.189 60.16C118.549 60.5867 117.723 60.9333 116.709 61.2C115.696 61.4667 114.789 61.6 113.989 61.6C111.109 61.6 109.669 59.6267 109.669 55.68C109.669 52.64 110.683 48.48 112.709 43.2C111.643 45.6533 110.416 47.9733 109.029 50.16C107.643 52.2933 106.229 54.1867 104.789 55.84C103.349 57.4933 101.883 58.8533 100.389 59.92C98.9494 60.9333 97.616 61.5467 96.3894 61.76C94.416 61.6533 92.816 60.72 91.5894 58.96C90.3627 57.1467 89.7494 54.8533 89.7494 52.08C89.7494 49.0933 90.3894 45.9467 91.6694 42.64C92.9494 39.3333 94.576 36.2667 96.5494 33.44C98.576 30.6133 100.763 28.2667 103.109 26.4C105.456 24.48 107.723 23.4667 109.909 23.36C110.443 23.52 111.029 23.84 111.669 24.32C112.363 24.8 113.003 25.36 113.589 26C114.229 26.64 114.763 27.3067 115.189 28C115.616 28.64 115.856 29.2 115.909 29.68C113.776 30 111.563 31.04 109.269 32.8C107.029 34.56 104.976 36.6933 103.109 39.2C101.296 41.6533 99.8027 44.2933 98.6294 47.12C97.456 49.9467 96.8694 52.5867 96.8694 55.04C96.8694 56.0533 97.2427 56.6933 97.9894 56.96C99.536 56.64 101.323 55.3333 103.349 53.04C105.376 50.6933 107.829 47.0933 110.709 42.24C111.243 41.28 111.829 40.2133 112.469 39.04C113.163 37.8667 113.856 36.64 114.549 35.36C115.243 34.08 115.909 32.8 116.549 31.52C117.243 30.1867 117.883 28.9067 118.469 27.68ZM181.35 26.64C183.057 26.64 184.39 27.12 185.35 28.08C186.363 29.04 186.87 30.3733 186.87 32.08C186.87 32.5067 186.843 32.96 186.79 33.44C186.737 33.8667 186.63 34.24 186.47 34.56C185.777 34.4533 185.003 34.3733 184.15 34.32C183.297 34.2133 182.283 34.16 181.11 34.16C178.71 34.16 176.31 34.3733 173.91 34.8C171.51 35.2267 169.217 35.5733 167.03 35.84C164.63 41.4933 162.657 46.8 161.11 51.76C159.563 56.72 158.363 61.6267 157.51 66.48C155.697 66.0533 154.097 65.28 152.71 64.16C151.323 63.04 150.017 61.4667 148.79 59.44C149.163 58.5867 149.617 57.5733 150.15 56.4C150.683 55.1733 151.323 53.6533 152.07 51.84C152.817 49.9733 153.697 47.7333 154.71 45.12C155.777 42.4533 157.03 39.28 158.47 35.6C156.23 34.8533 154.763 33.5467 154.07 31.68C154.337 31.4133 155.083 31.12 156.31 30.8C157.537 30.4267 159.03 30.0267 160.79 29.6C161.59 27.52 162.283 25.68 162.87 24.08C163.457 22.4267 163.99 20.88 164.47 19.44C164.95 17.9467 165.377 16.5067 165.75 15.12C166.177 13.68 166.55 12.16 166.87 10.56H166.47C164.443 10.56 162.79 10.08 161.51 9.12C160.283 8.16 159.67 6.90666 159.67 5.36C159.67 4.93333 159.723 4.42666 159.83 3.84C159.99 3.25333 160.177 2.74666 160.39 2.32C161.403 2.48 162.39 2.58666 163.35 2.64C164.363 2.69333 165.67 2.72 167.27 2.72C170.63 2.72 173.777 2.64 176.71 2.48C179.643 2.26666 182.283 2.05333 184.63 1.84C187.03 1.62666 189.083 1.44 190.79 1.28C192.497 1.06666 193.803 0.959997 194.71 0.959997C195.937 0.959997 197.03 1.6 197.99 2.88C198.95 4.16 199.697 5.97333 200.23 8.32C198.523 8.16 197.137 8.05333 196.07 8C195.057 7.94666 194.15 7.92 193.35 7.92C190.63 7.92 188.123 8.05333 185.83 8.32C183.59 8.53333 181.457 8.8 179.43 9.12C179.11 9.6 178.737 10.2133 178.31 10.96C177.937 11.7067 177.43 12.7733 176.79 14.16C176.15 15.4933 175.323 17.2533 174.31 19.44C173.35 21.6267 172.123 24.4 170.63 27.76C172.71 27.44 174.683 27.1733 176.55 26.96C178.47 26.7467 180.07 26.64 181.35 26.64ZM219.119 26.88C218.905 30.1867 218.319 33.04 217.359 35.44C216.399 37.7867 215.012 39.8667 213.199 41.68C211.439 43.44 209.279 45.04 206.719 46.48C204.159 47.92 201.172 49.3067 197.759 50.64C197.759 50.96 197.732 51.3067 197.679 51.68C197.679 52 197.679 52.3467 197.679 52.72C197.679 53.4133 197.732 54.1333 197.839 54.88C197.945 55.6267 198.132 56.32 198.399 56.96C198.665 57.6 199.039 58.1333 199.519 58.56C199.999 58.9333 200.612 59.12 201.359 59.12C202.799 59.12 204.212 58.8 205.599 58.16C206.985 57.52 208.292 56.7467 209.519 55.84C210.799 54.88 211.972 53.8667 213.039 52.8C214.159 51.68 215.145 50.6667 215.999 49.76C216.532 50.24 216.985 50.6933 217.359 51.12C214.959 54.32 212.319 56.9867 209.439 59.12C206.612 61.2 203.919 62.5333 201.359 63.12C197.679 62.6933 194.799 61.36 192.719 59.12C190.692 56.8267 189.679 54.08 189.679 50.88C189.679 48.6933 189.972 46.48 190.559 44.24C191.199 41.9467 192.052 39.76 193.119 37.68C194.239 35.5467 195.519 33.5467 196.959 31.68C198.452 29.8133 200.025 28.1867 201.679 26.8C203.385 25.4133 205.119 24.32 206.879 23.52C208.692 22.72 210.479 22.32 212.239 22.32C214.692 22.64 216.985 24.16 219.119 26.88ZM213.599 29.52C212.159 29.7333 210.665 30.32 209.119 31.28C207.572 32.24 206.105 33.52 204.719 35.12C203.385 36.72 202.159 38.5867 201.039 40.72C199.919 42.8533 199.039 45.1467 198.399 47.6C202.665 45.4667 206.212 42.8533 209.039 39.76C211.865 36.6133 213.385 33.2 213.599 29.52ZM222.903 54.64C222.903 54.16 222.929 53.5733 222.983 52.88C223.089 52.1333 223.249 51.1733 223.463 50C223.676 48.7733 223.943 47.3067 224.263 45.6C224.636 43.8933 225.089 41.84 225.622 39.44C225.729 38.9067 225.969 38.0533 226.343 36.88C226.716 35.7067 227.196 34.48 227.783 33.2C228.423 31.8667 229.169 30.5867 230.023 29.36C230.929 28.1333 231.996 27.2267 233.223 26.64C234.129 26.8533 235.329 27.4133 236.823 28.32C238.316 29.1733 239.596 30.3733 240.663 31.92C239.436 33.3067 238.396 34.6933 237.543 36.08C236.743 37.4667 235.996 38.9067 235.303 40.4C234.663 41.8933 234.049 43.44 233.463 45.04C232.929 46.64 232.316 48.32 231.623 50.08C231.036 51.5733 230.503 53.12 230.023 54.72C229.543 56.2667 229.276 57.6267 229.223 58.8C229.223 59.76 229.196 60.4267 229.143 60.8C229.143 61.2267 229.009 61.44 228.743 61.44C228.529 61.44 228.103 61.3067 227.463 61.04C226.823 60.7733 226.156 60.3733 225.463 59.84C224.823 59.2533 224.236 58.5333 223.703 57.68C223.169 56.8267 222.903 55.8133 222.903 54.64ZM238.183 19.92C238.183 19.6 238.263 19.12 238.423 18.48C238.156 18.2133 237.916 17.8133 237.703 17.28C237.543 16.7467 237.463 16.2667 237.463 15.84C237.463 15.36 237.516 14.72 237.623 13.92C237.783 13.0667 237.969 12.16 238.183 11.2C238.396 10.24 238.663 9.25333 238.983 8.24C239.303 7.17333 239.623 6.21333 239.943 5.36C240.583 5.36 241.356 5.54666 242.263 5.92C243.223 6.24 244.183 6.69333 245.143 7.28C246.103 7.81333 246.983 8.42666 247.783 9.12C248.583 9.76 249.196 10.3733 249.623 10.96C249.036 11.5467 248.263 12.3733 247.303 13.44C246.343 14.4533 245.409 15.5467 244.503 16.72C243.596 17.84 242.769 18.9067 242.023 19.92C241.276 20.9333 240.796 21.6533 240.583 22.08C239.943 21.9733 239.383 21.7067 238.903 21.28C238.423 20.8 238.183 20.3467 238.183 19.92ZM239.809 58.4C240.075 56.8533 240.529 54.8267 241.169 52.32C241.862 49.76 242.662 47.0667 243.569 44.24C244.475 41.36 245.435 38.48 246.449 35.6C247.462 32.72 248.449 30.1333 249.409 27.84C250.102 26.1867 250.715 24.9067 251.249 24C251.782 23.04 252.369 22.24 253.009 21.6C253.755 21.7067 254.529 21.8933 255.329 22.16C256.129 22.4267 256.902 22.7467 257.649 23.12C258.395 23.4933 259.062 23.8933 259.649 24.32C260.235 24.6933 260.689 25.0667 261.009 25.44C259.569 27.1467 258.289 29.0933 257.169 31.28C256.102 33.4667 255.009 36.2667 253.889 39.68C256.769 37.12 259.302 34.6667 261.489 32.32C263.729 29.9733 265.809 27.36 267.729 24.48C268.049 24.2133 268.609 24.08 269.409 24.08C270.155 24.08 270.875 24.2133 271.569 24.48C272.262 24.6933 272.742 25.0133 273.009 25.44C272.049 28 271.569 30.5333 271.569 33.04C271.569 35.3867 271.915 37.1467 272.609 38.32C272.555 38.64 272.182 39.2533 271.489 40.16C270.849 41.0667 270.129 41.92 269.329 42.72C267.889 41.9733 266.609 40.96 265.489 39.68C264.369 38.3467 263.542 36.9067 263.009 35.36C260.502 37.12 258.369 38.8533 256.609 40.56C254.849 42.2133 253.329 44.08 252.049 46.16C250.822 48.1867 249.755 50.5333 248.849 53.2C247.995 55.8667 247.169 59.04 246.369 62.72C245.889 62.6667 245.302 62.48 244.609 62.16C243.969 61.8933 243.302 61.5467 242.609 61.12C241.969 60.6933 241.382 60.24 240.849 59.76C240.315 59.28 239.969 58.8267 239.809 58.4ZM301.594 27.68C302.128 27.68 302.741 27.7867 303.434 28C304.181 28.16 304.848 28.4 305.434 28.72C306.021 28.9867 306.501 29.28 306.874 29.6C307.301 29.92 307.514 30.2133 307.514 30.48C306.448 32.72 305.461 34.9867 304.554 37.28C303.648 39.52 302.874 41.68 302.234 43.76C301.594 45.84 301.088 47.7867 300.714 49.6C300.394 51.4133 300.234 52.9867 300.234 54.32C300.234 55.8133 300.394 57.0667 300.714 58.08C301.034 59.04 301.568 59.7333 302.314 60.16C301.674 60.5867 300.848 60.9333 299.834 61.2C298.821 61.4667 297.914 61.6 297.114 61.6C294.234 61.6 292.794 59.6267 292.794 55.68C292.794 52.64 293.808 48.48 295.834 43.2C294.768 45.6533 293.541 47.9733 292.154 50.16C290.768 52.2933 289.354 54.1867 287.914 55.84C286.474 57.4933 285.008 58.8533 283.514 59.92C282.074 60.9333 280.741 61.5467 279.514 61.76C277.541 61.6533 275.941 60.72 274.714 58.96C273.488 57.1467 272.874 54.8533 272.874 52.08C272.874 49.0933 273.514 45.9467 274.794 42.64C276.074 39.3333 277.701 36.2667 279.674 33.44C281.701 30.6133 283.888 28.2667 286.234 26.4C288.581 24.48 290.848 23.4667 293.034 23.36C293.568 23.52 294.154 23.84 294.794 24.32C295.488 24.8 296.128 25.36 296.714 26C297.354 26.64 297.888 27.3067 298.314 28C298.741 28.64 298.981 29.2 299.034 29.68C296.901 30 294.688 31.04 292.394 32.8C290.154 34.56 288.101 36.6933 286.234 39.2C284.421 41.6533 282.928 44.2933 281.754 47.12C280.581 49.9467 279.994 52.5867 279.994 55.04C279.994 56.0533 280.368 56.6933 281.114 56.96C282.661 56.64 284.448 55.3333 286.474 53.04C288.501 50.6933 290.954 47.0933 293.834 42.24C294.368 41.28 294.954 40.2133 295.594 39.04C296.288 37.8667 296.981 36.64 297.674 35.36C298.368 34.08 299.034 32.8 299.674 31.52C300.368 30.1867 301.008 28.9067 301.594 27.68Z" fill="#161832"/>
</svg>
